Source - MC DVD SCREENER @ICTV (Thank u Guyz)
Encoder - p0kaman [www.frendz4m.com]



General
Complete name                    : E:Khatta Meetha DVDSCR XViD - p0kamanKhatta Meetha DVDSCR XViD - p0kaman.avi
Format                           : AVI
Format/Info                      : Audio Video Interleave
File size                        : 877 MiB
Duration                         : 2h 29mn
Overall bit rate                 : 819 Kbps

Video
ID                               : 0
Format                           : MPEG-4 Visual
Format profile                   : Advanced Simple@L5
Format settings, BVOP            : Yes
Format settings, QPel            : No
Format settings, GMC             : No warppoints
Format settings, Matrix          : Default (H.263)
Codec ID                         : XVID
Codec ID/Hint                    : XviD
Duration                         : 2h 29mn
Bit rate                         : 710 Kbps
Width                            : 608 pixels
Height                           : 272 pixels
Display aspect ratio             : 2.25
Frame rate                       : 23.976 fps
Resolution                       : 24 bits
Colorimetry                      : 4:2:0
Scan type                        : Progressive
Bits/(Pixel*Frame)               : 0.179
Stream size                      : 760 MiB (87%)
Writing library                  : XviD 1.2.1 (UTC 2008-12-04)

Audio
ID                               : 1
Format                           : MPEG Audio
Format version                   : Version 1
Format profile                   : Layer 3
Codec ID                         : 55
Codec ID/Hint                    : MP3
Duration                         : 2h 29mn
Bit rate mode                    : Constant
Bit rate                         : 96.0 Kbps
Channel(s)                       : 2 channels
Sampling rate                    : 48.0 KHz
Resolution                       : 16 bits
Stream size                      : 103 MiB (12%)
Alignment                        : Split accross interleaves
Interleave, duration             : 24 ms (0.58 video frame)


Screenshots -
 
http://img51.imageshack.us/img51/6923/ss1s.jpg 
http://img812.imageshack.us/img812/568/ss2l.jpg 
http://img831.imageshack.us/img831/1968/ss3c.jpg 
http://img842.imageshack.us/img842/682/ss4q.jpg 
http://img59.imageshack.us/img59/8365/ss5wd.jpg 
http://img14.imageshack.us/img14/2133/ss6f.jpg 
http://img820.imageshack.us/img820/1396/thumbso.jpg

Release Notes : The rip went oversize :(